<svg width="24" height="24" viewBox="0 0 24 24" fill="none" xmlns="http://www.w3.org/2000/svg">
<path d="M4.54554 10.9074C4.48853 10.9074 4.43152 10.9036 4.37832 10.8883C3.92987 10.7966 3.64103 10.3537 3.73604 9.90309L4.80017 4.73268C4.87997 4.347 5.21821 4.06824 5.61346 4.06824H17.2749C17.7309 4.06824 18.1034 4.44246 18.1034 4.9007C18.1034 5.35893 17.7309 5.73315 17.2749 5.73315H6.28613L5.35503 10.2429C5.27522 10.6363 4.92938 10.9074 4.54554 10.9074Z" fill="#455A64"/>
<path d="M19.3253 10.9074C19.3823 10.9074 19.4393 10.9036 19.4925 10.8883C19.941 10.7966 20.2298 10.3537 20.1348 9.90308L19.0669 4.73268C18.9871 4.347 18.6488 4.06824 18.2574 4.06824H16.8664C16.4104 4.06824 16.0379 4.44246 16.0379 4.9007C16.0379 5.35893 16.4104 5.73315 16.8664 5.73315H17.5847L18.5158 10.2429C18.5956 10.6363 18.9377 10.9074 19.3253 10.9074Z" fill="#455A64"/>
<path d="M18.4668 21H5.52922C5.06889 21 4.68125 20.6551 4.62472 20.1967L3.47794 10.8243H20.5222L19.3754 20.1967C19.3148 20.6551 18.9272 21 18.4668 21Z" fill="#43A047"/>
<path d="M20.825 11.3437H3.17505C2.52493 11.3437 2 10.8163 2 10.1631C2 9.50986 2.52493 8.98242 3.17505 8.98242H20.825C21.4751 8.98242 22 9.50986 22 10.1631C22 10.8163 21.471 11.3437 20.825 11.3437Z" fill="#66BB6A"/>
<path d="M11.998 19.189C11.4529 19.189 11.0128 18.7468 11.0128 18.199V13.59C11.0128 13.0422 11.4529 12.6 11.998 12.6C12.5432 12.6 12.9833 13.0422 12.9833 13.59V18.199C12.9833 18.7468 12.5432 19.189 11.998 19.189Z" fill="white"/>
<path d="M15.2769 15.8946C15.2769 16.4424 14.8367 16.8846 14.2916 16.8846H9.7045C9.15937 16.8846 8.71924 16.4424 8.71924 15.8946C8.71924 15.3469 9.15937 14.9047 9.7045 14.9047H14.2916C14.8367 14.9047 15.2769 15.3469 15.2769 15.8946Z" fill="white"/>
<rect width="7.04958" height="3.6" transform="matrix(1 0 0 -1 8.46289 6.60004)" fill="#43A047"/>
</svg>
