<?xml version="1.0" encoding="utf-8"?>
<!-- Generator: Adobe Illustrator 24.2.0, SVG Export Plug-In . SVG Version: 6.00 Build 0)  -->
<svg version="1.1" id="Layer_1" xmlns="http://www.w3.org/2000/svg" xmlns:xlink="http://www.w3.org/1999/xlink" x="0px" y="0px"
	 viewBox="0 0 24 24" style="enable-background:new 0 0 24 24;" xml:space="preserve">
<style type="text/css">
	.st0{fill:#797A7B;}
</style>
<g>
	<path class="st0" d="M14.15,18.81c0-0.08,0-0.15,0-0.21c-0.02-0.59-0.27-0.85-0.81-0.85c-0.86,0-1.72,0.02-2.58-0.01
		c-0.61-0.02-0.95,0.37-0.88,0.92c0.01,0.04-0.01,0.09-0.01,0.16c-0.48,0-0.94,0.02-1.41-0.01C8.19,18.79,8,18.51,8,18.19
		c0-0.87,0.02-1.73,0.03-2.6c0-0.22-0.03-0.45-0.03-0.67c0-3.36,0-6.71,0-10.07C8,4.23,8.21,4,8.78,4c2.15,0,4.31,0,6.46,0
		C15.8,4,16,4.22,16,4.84c0,4.41,0,8.83,0,13.24c0,0.52-0.22,0.78-0.71,0.78c-0.34,0-0.69,0-1.03,0
		C14.24,18.84,14.22,18.83,14.15,18.81z M12.01,5.1c-0.82,0-1.65-0.01-2.46,0c-0.36,0-0.51,0.18-0.52,0.56c0,0.07,0,0.16,0,0.23
		c0,0.5,0.14,0.65,0.6,0.65c1.25,0,2.49,0,3.74,0c0.38,0,0.76,0.01,1.13,0c0.32-0.01,0.48-0.18,0.48-0.52c0-0.08,0-0.18,0-0.26
		c0-0.49-0.15-0.65-0.59-0.65C13.6,5.1,12.81,5.1,12.01,5.1z M10.64,14.81c0.01,0.68,0.46,1.5,1.37,1.49c0.77,0,1.44-0.68,1.41-1.49
		c-0.04-0.76-0.56-1.47-1.42-1.48C11.26,13.32,10.64,14.01,10.64,14.81z M14.13,9.07c0-0.18,0.01-0.36,0-0.52
		c-0.02-0.31-0.16-0.46-0.48-0.48c-0.42-0.03-0.64,0.09-0.66,0.42c-0.02,0.4-0.02,0.8,0,1.2c0.02,0.33,0.24,0.44,0.66,0.41
		c0.29-0.01,0.46-0.17,0.47-0.46C14.13,9.45,14.12,9.26,14.13,9.07z M9.88,9.08c0,0.17,0,0.34,0,0.49c0.01,0.36,0.18,0.51,0.55,0.51
		c0.4,0,0.58-0.15,0.59-0.5c0.01-0.34,0.01-0.66,0-1c-0.01-0.39-0.17-0.53-0.59-0.52c-0.39,0-0.54,0.16-0.55,0.55
		C9.88,8.77,9.88,8.93,9.88,9.08z M11.44,9.08c0,0.18-0.01,0.36,0,0.52c0.01,0.31,0.16,0.47,0.47,0.49c0.42,0.02,0.64-0.1,0.66-0.42
		c0.03-0.4,0.03-0.8,0-1.2c-0.02-0.31-0.24-0.44-0.66-0.41c-0.3,0.01-0.46,0.17-0.47,0.47C11.43,8.73,11.44,8.9,11.44,9.08z
		 M11.44,11.71c0,0.35,0.25,0.61,0.56,0.61c0.31,0,0.57-0.28,0.57-0.62c0-0.34-0.26-0.61-0.57-0.61
		C11.68,11.11,11.44,11.36,11.44,11.71z M14.2,7.11c-0.18,0-0.38-0.02-0.56,0.01c-0.09,0.01-0.09,0.36-0.01,0.36
		c0.38,0.02,0.76,0.02,1.13,0c0.08,0,0.07-0.35-0.02-0.36C14.56,7.09,14.38,7.11,14.2,7.11z"/>
	<path class="st0" d="M8.82,19.24c2.13,0,4.24,0,6.35,0c0.07,0.42-0.16,0.73-0.55,0.75c-0.36,0.01-0.73,0-1.09,0
		c-1.37,0-2.72,0-4.09,0C9.03,20,8.8,19.71,8.82,19.24z"/>
	<path class="st0" d="M13.76,18.83c-1.16,0-2.34,0-3.5,0c-0.12-0.53,0.01-0.71,0.48-0.71c0.83,0,1.66,0,2.49,0
		C13.75,18.12,13.86,18.26,13.76,18.83z"/>
	<path class="st0" d="M12.02,6.16c-0.79,0-1.57-0.01-2.36,0.01c-0.25,0-0.3-0.1-0.3-0.35c0-0.23,0.03-0.36,0.29-0.35
		c1.56,0.01,3.13,0.01,4.69,0c0.26,0,0.3,0.1,0.29,0.35c0,0.23-0.02,0.36-0.29,0.36C13.59,6.15,12.8,6.16,12.02,6.16z"/>
	<path class="st0" d="M12.99,14.81c0.02,0.75-0.46,1.08-1.02,1.11c-0.5,0.03-1-0.55-1-1.1c0-0.62,0.48-1.12,1.05-1.1
		C12.6,13.72,13,14.17,12.99,14.81z M11.44,14.81c0,0.37,0.23,0.66,0.55,0.66c0.3,0,0.57-0.3,0.57-0.64c0-0.34-0.25-0.62-0.56-0.63
		C11.7,14.19,11.44,14.46,11.44,14.81z"/>
	<path class="st0" d="M13.37,8.47c0.41-0.06,0.41-0.06,0.41,0.34c0,0.29,0,0.58,0,0.88c-0.16,0-0.27,0-0.41,0
		C13.37,9.29,13.37,8.89,13.37,8.47z"/>
	<path class="st0" d="M10.24,9.06c0-0.12,0.01-0.23,0-0.36c-0.01-0.16,0.01-0.27,0.21-0.27c0.2,0,0.24,0.09,0.23,0.28
		c-0.01,0.25-0.01,0.51,0,0.77c0.01,0.19-0.08,0.23-0.23,0.23c-0.16,0-0.22-0.06-0.21-0.24C10.24,9.33,10.24,9.2,10.24,9.06z"/>
	<path class="st0" d="M11.79,8.5c0.41-0.06,0.45-0.08,0.45,0.31c0,0.22-0.01,0.45,0,0.67c0.01,0.19-0.08,0.23-0.23,0.23
		c-0.16,0-0.22-0.06-0.22-0.24C11.79,9.15,11.79,8.81,11.79,8.5z"/>
	<path class="st0" d="M11.75,14.82c0,0.17,0.11,0.29,0.25,0.29c0.14,0,0.26-0.14,0.26-0.28c0-0.15-0.12-0.27-0.25-0.28
		C11.87,14.55,11.75,14.66,11.75,14.82z"/>
	<path class="st0" d="M11.75,11.7c0,0.17,0.11,0.29,0.25,0.29c0.14,0,0.26-0.14,0.26-0.28s-0.12-0.27-0.25-0.28
		C11.87,11.42,11.75,11.55,11.75,11.7z"/>
</g>
</svg>
