<?xml version="1.0" encoding="utf-8"?>
<!-- Generator: Adobe Illustrator 24.2.0, SVG Export Plug-In . SVG Version: 6.00 Build 0)  -->
<svg version="1.1" id="Layer_1" xmlns="http://www.w3.org/2000/svg" xmlns:xlink="http://www.w3.org/1999/xlink" x="0px" y="0px"
	 viewBox="0 0 24 24" style="enable-background:new 0 0 24 24;" xml:space="preserve">
<style type="text/css">
	.st0{fill:#797A7B;}
</style>
<g>
	<path class="st0" d="M18,12.03c0,1.36,0,2.72,0,4.09c0,1.14-0.73,1.88-1.87,1.88c-2.76,0-5.5,0-8.26,0C6.75,18,6,17.27,6,16.14
		c0-2.76,0-5.5,0-8.26C6,6.75,6.78,6,7.91,6c2.73,0,5.46,0,8.19,0C17.24,6,18,6.75,18,7.88C18,9.26,18,10.64,18,12.03z M12.03,7.98
		c-0.86,0-1.7,0.03-2.55-0.01c-0.75-0.03-1.51,0.58-1.5,1.51c0.01,1.68,0,3.35,0,5.03c0,0.91,0.55,1.5,1.47,1.51
		c1.7,0.01,3.39,0.01,5.1,0c0.9-0.01,1.47-0.55,1.48-1.46c0.03-1.7,0.01-3.42,0-5.13c0-0.97-0.79-1.5-1.52-1.47
		C13.68,8.01,12.85,7.98,12.03,7.98z"/>
	<path class="st0" d="M19.29,11.17H17V9.23h2.29c0.39,0,0.71,0.43,0.71,0.96C20,10.73,19.68,11.17,19.29,11.17z"/>
	<path class="st0" d="M19.29,14.77H17v-1.92h2.29c0.39,0,0.71,0.43,0.71,0.96C20,14.34,19.68,14.77,19.29,14.77z"/>
	<path class="st0" d="M4.71,12.85H7v1.94H4.71C4.32,14.77,4,14.34,4,13.81C4,13.28,4.32,12.85,4.71,12.85z"/>
	<path class="st0" d="M4.71,9.23H7v1.94H4.71C4.32,11.17,4,10.73,4,10.19C4,9.66,4.32,9.23,4.71,9.23z"/>
	<path class="st0" d="M11.17,4.71V7H9.23V4.71C9.23,4.32,9.66,4,10.19,4C10.73,4,11.17,4.32,11.17,4.71z"/>
	<path class="st0" d="M14.77,4.71V7h-1.92V4.71c0-0.39,0.43-0.71,0.96-0.71C14.34,4,14.77,4.32,14.77,4.71z"/>
	<path class="st0" d="M12.85,19.29V17h1.94v2.29c0,0.39-0.43,0.71-0.96,0.71C13.28,20,12.85,19.68,12.85,19.29z"/>
	<path class="st0" d="M9.23,19.29V17h1.94v2.29c0,0.39-0.43,0.71-0.96,0.71C9.66,20,9.23,19.68,9.23,19.29z"/>
	<path class="st0" d="M15,11.99c0,0.69,0,1.38,0,2.07c0,0.57-0.36,0.94-0.94,0.94c-1.38,0-2.77,0-4.14,0C9.37,15,9,14.63,9,14.08
		c0-1.38,0-2.77,0-4.14C9,9.37,9.37,9,9.94,9c1.38,0,2.77,0,4.14,0C14.63,9,15,9.37,15,9.92C15,10.62,15,11.31,15,11.99z"/>
</g>
</svg>
