<svg width="44" height="44" viewBox="0 0 44 44" fill="none" xmlns="http://www.w3.org/2000/svg">
<path d="M10 44H42C43.1046 44 44 43.1046 44 42V14.3498C44 13.8068 43.7792 13.2871 43.3883 12.9101L30.5811 0.560311C30.2083 0.200857 29.7106 0 29.1928 0H10C8.89543 0 8 0.895431 8 2V42C8 43.1046 8.89543 44 10 44Z" fill="#E9EAEE"/>
<path d="M31 11V1L43.5 13H33.0033C31.8987 13 31 12.1046 31 11Z" fill="#A7ADBB"/>
<rect y="20" width="40" height="18" rx="2" fill="#3097E1"/>
<path d="M5 24.2139H8.19966C9.18688 24.2139 10.0463 24.4144 10.7779 24.8155C11.5095 25.2166 12.0736 25.7781 12.4703 26.5C12.8669 27.2219 13.0653 28.0553 13.0653 29C13.0653 29.9447 12.8669 30.7781 12.4703 31.5C12.0736 32.2219 11.5095 32.7834 10.7779 33.1845C10.0463 33.5856 9.18688 33.7861 8.19966 33.7861H5V24.2139ZM8.12033 32.0749C9.14281 32.0749 9.92289 31.803 10.4606 31.2594C10.9983 30.7068 11.2671 29.9537 11.2671 29C11.2671 28.0463 10.9983 27.2977 10.4606 26.754C9.92289 26.2014 9.14281 25.9251 8.12033 25.9251H6.78493V32.0749H8.12033Z" fill="white"/>
<path d="M21.7424 33.3449C20.9932 33.7816 20.1558 34 19.2303 34C18.3048 34 17.463 33.7816 16.7049 33.3449C15.9557 32.8993 15.3651 32.2932 14.9332 31.5267C14.5013 30.7602 14.2854 29.918 14.2854 29C14.2854 28.082 14.5013 27.2398 14.9332 26.4733C15.3651 25.7068 15.9557 25.1052 16.7049 24.6684C17.463 24.2228 18.3048 24 19.2303 24C20.1558 24 20.9932 24.2228 21.7424 24.6684C22.5005 25.1052 23.0955 25.7068 23.5274 26.4733C23.9593 27.2398 24.1752 28.082 24.1752 29C24.1752 29.918 23.9593 30.7602 23.5274 31.5267C23.0955 32.2932 22.5005 32.8993 21.7424 33.3449ZM17.6305 31.8743C18.1153 32.1506 18.6485 32.2888 19.2303 32.2888C19.8121 32.2888 20.3453 32.1506 20.8301 31.8743C21.3149 31.598 21.6939 31.2103 21.9672 30.7112C22.2493 30.2121 22.3903 29.6417 22.3903 29C22.3903 28.3583 22.2493 27.7879 21.9672 27.2888C21.6939 26.7897 21.3149 26.402 20.8301 26.1257C20.3453 25.8494 19.8121 25.7112 19.2303 25.7112C18.6485 25.7112 18.1153 25.8494 17.6305 26.1257C17.1545 26.402 16.7755 26.7897 16.4934 27.2888C16.2202 27.7879 16.0835 28.3583 16.0835 29C16.0835 29.6417 16.2202 30.2121 16.4934 30.7112C16.7755 31.2103 17.1545 31.598 17.6305 31.8743Z" fill="white"/>
<path d="M30.2186 34C29.3019 34 28.4645 33.7816 27.7065 33.3449C26.9484 32.8993 26.349 32.2977 25.9083 31.5401C25.4764 30.7736 25.2604 29.9269 25.2604 29C25.2604 28.0731 25.4764 27.2308 25.9083 26.4733C26.349 25.7068 26.9484 25.1052 27.7065 24.6684C28.4645 24.2228 29.3019 24 30.2186 24C31.6465 24 32.8277 24.5214 33.762 25.5642L32.5059 26.7941C31.8977 26.0722 31.1397 25.7112 30.2318 25.7112C29.6412 25.7112 29.1036 25.8494 28.6188 26.1257C28.134 26.393 27.7505 26.7763 27.4685 27.2754C27.1952 27.7745 27.0586 28.3494 27.0586 29C27.0586 29.6506 27.1952 30.2255 27.4685 30.7246C27.7505 31.2237 28.134 31.6114 28.6188 31.8877C29.1036 32.1551 29.6412 32.2888 30.2318 32.2888C31.2278 32.2888 32.0608 31.8699 32.7307 31.0321L34 32.2487C33.5328 32.8191 32.9775 33.2558 32.3341 33.5588C31.6994 33.8529 30.9943 34 30.2186 34Z" fill="white"/>
</svg>
