<svg width="24" height="24" viewBox="0 0 24 24" fill="none" xmlns="http://www.w3.org/2000/svg">
<path d="M5 4C5.26521 4 5.51957 4.10536 5.7071 4.29289C5.89464 4.48043 6 4.73478 6 5V13C6 13.2652 6.10535 13.5196 6.29289 13.7071C6.48043 13.8946 6.73478 14 7 14H16.59L15.29 12.71C15.1017 12.5217 14.9959 12.2663 14.9959 12C14.9959 11.7337 15.1017 11.4783 15.29 11.29C15.4783 11.1017 15.7337 10.9959 16 10.9959C16.2663 10.9959 16.5217 11.1017 16.71 11.29L19.71 14.29C19.801 14.3851 19.8724 14.4972 19.92 14.62C20.02 14.8635 20.02 15.1365 19.92 15.38C19.8724 15.5027 19.801 15.6149 19.71 15.71L16.71 18.71C16.617 18.8037 16.5064 18.8781 16.3846 18.9289C16.2627 18.9797 16.132 19.0058 16 19.0058C15.868 19.0058 15.7373 18.9797 15.6154 18.9289C15.4936 18.8781 15.383 18.8037 15.29 18.71C15.1963 18.617 15.1219 18.5064 15.0711 18.3846C15.0203 18.2627 14.9942 18.132 14.9942 18C14.9942 17.868 15.0203 17.7373 15.0711 17.6154C15.1219 17.4936 15.1963 17.383 15.29 17.29L16.59 16H7C6.20435 16 5.44129 15.6839 4.87868 15.1213C4.31607 14.5587 4 13.7956 4 13V5C4 4.73478 4.10535 4.48043 4.29289 4.29289C4.48043 4.10536 4.73478 4 5 4Z" fill="#3C3D3F"/>
</svg>
