<?xml version="1.0" encoding="utf-8"?>
<!-- Generator: Adobe Illustrator 24.2.0, SVG Export Plug-In . SVG Version: 6.00 Build 0)  -->
<svg version="1.1" id="Layer_1" xmlns="http://www.w3.org/2000/svg" xmlns:xlink="http://www.w3.org/1999/xlink" x="0px" y="0px"
	 viewBox="0 0 24 24" style="enable-background:new 0 0 24 24;" xml:space="preserve">
<style type="text/css">
	.st0{fill:#797A7B;}
</style>
<g>
	<path class="st0" d="M19,12.01c0,2.22,0,4.43,0,6.65c0,0.63-0.31,1.08-0.91,1.26C17.91,19.98,17.7,20,17.51,20
		c-2.34,0.01-4.67,0-7.01,0c-1.35,0-2.7,0-4.06,0c-0.5,0-0.91-0.14-1.2-0.53C5.07,19.25,5,19,5,18.73c0-2.38,0-4.75,0-7.13
		c0-2.1,0-4.19,0-6.29c0-0.65,0.4-1.15,1.03-1.27C6.17,4.01,6.32,4,6.47,4c2.97,0,5.95,0,8.93,0c0.74,0,1.49-0.01,2.24,0
		c0.63,0.01,1.11,0.31,1.3,0.83c0.05,0.13,0.07,0.27,0.07,0.41c0.01,1.91,0,3.81,0,5.72C19,11.32,19,11.66,19,12.01z M6.96,10.64
		C7,10.96,7.03,11.29,7.1,11.6c0.28,1.19,0.97,2.13,2.04,2.83c0.08,0.05,0.13,0.05,0.21,0c0.64-0.38,1.28-0.75,1.93-1.12
		c0.56-0.33,1.11-0.65,1.67-0.97c0.08-0.05,0.21-0.08,0.31-0.07c0.33,0.04,0.43,0.37,0.21,0.62c-0.97,1.13-1.93,2.26-2.9,3.4
		c-0.29,0.34-0.59,0.67-0.87,1.02c-0.06,0.08-0.11,0.2-0.11,0.3c0,0.13,0.1,0.22,0.24,0.25c0.16,0.04,0.28-0.02,0.39-0.14
		c0.67-0.78,1.34-1.57,2.01-2.36c0.06-0.08,0.14-0.12,0.24-0.12c1.01-0.08,1.9-0.42,2.68-1c1.94-1.45,2.43-3.96,1.17-5.95
		c-1.15-1.82-3.52-2.68-5.69-2.1C8.46,6.78,7,8.57,6.96,10.64z M7,18.78c0-0.35-0.29-0.62-0.67-0.63c-0.38-0.01-0.68,0.26-0.69,0.61
		c-0.01,0.34,0.3,0.63,0.66,0.63C6.7,19.4,7,19.13,7,18.78z M7,5.24c0.01-0.35-0.29-0.62-0.67-0.63C5.97,4.6,5.66,4.88,5.66,5.21
		C5.65,5.57,5.94,5.85,6.32,5.85C6.7,5.85,7,5.58,7,5.24z M17.67,5.85c0.36,0.01,0.67-0.27,0.67-0.6c0.01-0.35-0.29-0.64-0.66-0.64
		C17.3,4.61,17,4.88,17,5.23C17,5.58,17.29,5.84,17.67,5.85z M17,18.78c0,0.35,0.3,0.62,0.68,0.62c0.36,0,0.66-0.28,0.67-0.61
		c0-0.35-0.29-0.63-0.66-0.63C17.29,18.16,17,18.43,17,18.78z"/>
	<path class="st0" d="M12.01,9.43c0.73,0,1.31,0.54,1.31,1.22c0,0.68-0.59,1.23-1.32,1.23c-0.74,0-1.32-0.54-1.32-1.22
		C10.67,9.96,11.26,9.43,12.01,9.43z"/>
</g>
</svg>
