<svg width="48" height="48" viewBox="0 0 48 48" fill="none" xmlns="http://www.w3.org/2000/svg">
<path d="M40 12H8C5.8 12 4 13.8 4 16V36C4 38.2 5.8 40 8 40H40C42.2 40 44 38.2 44 36V16C44 13.8 42.2 12 40 12Z" fill="#1EE181"/>
<path d="M25.8446 23.7935C27.8283 25.6625 27.8011 28.659 25.8565 30.4994C25.8529 30.5031 25.8485 30.5072 25.8446 30.511L23.6133 32.611C21.6454 34.4631 18.4436 34.4629 16.476 32.611C14.508 30.7591 14.508 27.7453 16.476 25.8935L17.708 24.7339C18.0347 24.4264 18.5974 24.6308 18.6142 25.0653C18.6358 25.6192 18.7413 26.1756 18.936 26.7129C19.0019 26.8948 18.9548 27.0961 18.8104 27.232L18.3758 27.641C17.4453 28.5168 17.4161 29.9428 18.3375 30.8272C19.268 31.7203 20.7974 31.7256 21.735 30.8431L23.9663 28.7435C24.9023 27.8625 24.8984 26.4386 23.9663 25.5613C23.8434 25.4458 23.7196 25.3562 23.6229 25.2935C23.5545 25.2493 23.498 25.1907 23.458 25.1223C23.4179 25.0539 23.3954 24.9776 23.3922 24.8996C23.3791 24.5693 23.5034 24.2291 23.7807 23.9681L24.4797 23.3102C24.663 23.1376 24.9506 23.1164 25.1632 23.2561C25.4066 23.4161 25.6346 23.5959 25.8446 23.7935ZM30.524 19.389C28.5564 17.5371 25.3546 17.5369 23.3867 19.389L21.1554 21.489C21.1515 21.4928 21.1471 21.4969 21.1435 21.5006C19.1989 23.341 19.1717 26.3375 21.1554 28.2065C21.3654 28.4041 21.5934 28.5839 21.8368 28.7439C22.0494 28.8835 22.337 28.8623 22.5203 28.6898L23.2193 28.0318C23.4966 27.7709 23.6209 27.4306 23.6077 27.1004C23.6046 27.0224 23.582 26.9461 23.542 26.8777C23.5019 26.8093 23.4455 26.7507 23.3771 26.7065C23.2804 26.6438 23.1566 26.5541 23.0337 26.4387C22.1016 25.5614 22.0977 24.1375 23.0337 23.2565L25.265 21.1568C26.2026 20.2744 27.732 20.2797 28.6625 21.1728C29.5839 22.0571 29.5547 23.4832 28.6241 24.359L28.1896 24.768C28.0452 24.9039 27.998 25.1052 28.064 25.2871C28.2587 25.8244 28.3642 26.3808 28.3857 26.9346C28.4026 27.3692 28.9653 27.5736 29.292 27.2661L30.524 26.1065C32.492 24.2547 32.492 21.2409 30.524 19.389Z" fill="#08A759"/>
</svg>
