<svg width="44" height="44" viewBox="0 0 44 44" fill="none" xmlns="http://www.w3.org/2000/svg">
<path d="M10 44H42C43.1046 44 44 43.1046 44 42V14.3498C44 13.8068 43.7792 13.2871 43.3883 12.9101L30.5811 0.560311C30.2083 0.200857 29.7106 0 29.1928 0H10C8.89543 0 8 0.895431 8 2V42C8 43.1046 8.89543 44 10 44Z" fill="#E9EAEE"/>
<path d="M31 11V1L43.5 13H33.0033C31.8987 13 31 12.1046 31 11Z" fill="#A7ADBB"/>
<rect y="20" width="40" height="18" rx="2" fill="#ED3E27"/>
<path d="M7 24H10.6347C11.2885 24 11.8847 24.135 12.4232 24.405C12.9616 24.6657 13.3847 25.0382 13.6924 25.5223C14.0001 25.9972 14.154 26.5419 14.154 27.1564C14.154 27.7709 14.0001 28.3203 13.6924 28.8045C13.3847 29.2886 12.9616 29.6657 12.4232 29.9358C11.8847 30.1965 11.2885 30.3268 10.6347 30.3268H8.94715V34H7V24ZM10.6924 28.5391C11.1732 28.5391 11.5482 28.4041 11.8174 28.1341C12.0962 27.8641 12.2357 27.5382 12.2357 27.1564C12.2357 26.7747 12.0962 26.4534 11.8174 26.1927C11.5482 25.9227 11.1732 25.7877 10.6924 25.7877H8.94715V28.5391H10.6924Z" fill="white"/>
<path d="M15.8033 24H19.2938C20.3707 24 21.3082 24.2095 22.1063 24.6285C22.9044 25.0475 23.5198 25.6341 23.9525 26.3883C24.3852 27.1425 24.6016 28.013 24.6016 29C24.6016 29.987 24.3852 30.8575 23.9525 31.6117C23.5198 32.3659 22.9044 32.9525 22.1063 33.3715C21.3082 33.7905 20.3707 34 19.2938 34H15.8033V24ZM19.2072 32.2123C20.3226 32.2123 21.1736 31.9283 21.7602 31.3603C22.3467 30.7831 22.64 29.9963 22.64 29C22.64 28.0037 22.3467 27.2216 21.7602 26.6536C21.1736 26.0764 20.3226 25.7877 19.2072 25.7877H17.7505V32.2123H19.2072Z" fill="white"/>
<path d="M26.4518 24H33V25.7877H28.399V28.2179H32.5385V30.0056H28.399V34H26.4518V24Z" fill="white"/>
</svg>
