<svg width="44" height="44" viewBox="0 0 44 44" fill="none" xmlns="http://www.w3.org/2000/svg">
<path d="M10 44H42C43.1046 44 44 43.1046 44 42V14.3498C44 13.8068 43.7792 13.2871 43.3883 12.9101L30.5811 0.560311C30.2083 0.200857 29.7106 0 29.1928 0H10C8.89543 0 8 0.895431 8 2V42C8 43.1046 8.89543 44 10 44Z" fill="#E9EAEE"/>
<path d="M31 11V1L43.5 13H33.0033C31.8987 13 31 12.1046 31 11Z" fill="#A7ADBB"/>
<rect y="20" width="40" height="18" rx="2" fill="#FF008A"/>
<path d="M7 24.2139H10.3341C10.9338 24.2139 11.4807 24.3431 11.9746 24.6016C12.4686 24.8512 12.8567 25.2077 13.1389 25.6711C13.4212 26.1257 13.5623 26.6471 13.5623 27.2353C13.5623 27.8235 13.4212 28.3494 13.1389 28.8128C12.8567 29.2763 12.4686 29.6373 11.9746 29.8957C11.4807 30.1453 10.9338 30.2701 10.3341 30.2701H8.78611V33.7861H7V24.2139ZM10.387 28.5588C10.828 28.5588 11.172 28.4296 11.419 28.1711C11.6748 27.9127 11.8026 27.6007 11.8026 27.2353C11.8026 26.8699 11.6748 26.5624 11.419 26.3128C11.172 26.0544 10.828 25.9251 10.387 25.9251H8.78611V28.5588H10.387Z" fill="white"/>
<path d="M15.0752 24.2139H17.1524L20.9628 30.631H21.0686L20.9628 28.7861V24.2139H22.7356V33.7861H20.8569L16.8349 27.008H16.729L16.8349 28.8529V33.7861H15.0752V24.2139Z" fill="white"/>
<path d="M29.3032 34C28.3947 34 27.5568 33.7861 26.7894 33.3583C26.0309 32.9216 25.4267 32.3244 24.9768 31.5668C24.527 30.8004 24.3021 29.9447 24.3021 29C24.3021 28.0553 24.527 27.2041 24.9768 26.4465C25.4267 25.68 26.0309 25.0829 26.7894 24.6551C27.5568 24.2184 28.3947 24 29.3032 24C30.0441 24 30.7189 24.1337 31.3275 24.4011C31.9449 24.6595 32.4741 25.0294 32.9151 25.5107L31.6847 26.7273C31.3671 26.3886 31.0143 26.1346 30.6262 25.9652C30.247 25.7959 29.8015 25.7112 29.29 25.7112C28.7078 25.7112 28.1742 25.8494 27.6891 26.1257C27.204 26.393 26.8159 26.7807 26.5248 27.2888C26.2426 27.7879 26.1014 28.3583 26.1014 29C26.1014 29.6417 26.247 30.2166 26.538 30.7246C26.8291 31.2237 27.2172 31.6114 27.7023 31.8877C28.1963 32.1551 28.7343 32.2888 29.3164 32.2888C30.1985 32.2888 30.9217 32.0258 31.4862 31.5C31.6626 31.3396 31.817 31.1346 31.9493 30.885C32.0816 30.6355 32.1786 30.3636 32.2404 30.0695H29.2635V28.5321H33.9074C33.9691 28.7816 34 29.0624 34 29.3743C34 30.0071 33.903 30.5954 33.7089 31.139C33.5237 31.6827 33.237 32.1595 32.849 32.5695C32.4256 33.033 31.914 33.3895 31.3142 33.639C30.7144 33.8797 30.0441 34 29.3032 34Z" fill="white"/>
</svg>
