<?xml version="1.0" encoding="utf-8"?>
<!-- Generator: Adobe Illustrator 24.2.0, SVG Export Plug-In . SVG Version: 6.00 Build 0)  -->
<svg version="1.1" id="Layer_1" xmlns="http://www.w3.org/2000/svg" xmlns:xlink="http://www.w3.org/1999/xlink" x="0px" y="0px"
	 viewBox="0 0 24 24" style="enable-background:new 0 0 24 24;" xml:space="preserve">
<style type="text/css">
	.st0{fill:#797A7B;}
</style>
<g>
	<path class="st0" d="M12,6.5c2.27,0,4.54,0,6.8,0c0.83,0,1.2,0.36,1.2,1.17c0,2.89,0,5.77,0,8.66c0,0.79-0.38,1.17-1.17,1.17
		c-4.56,0-9.11,0-13.67,0C4.38,17.5,4,17.13,4,16.36c0-2.91,0-5.81,0-8.72C4,6.88,4.38,6.5,5.13,6.5C7.43,6.5,9.71,6.5,12,6.5z
		 M13.33,12c0-2.25-1.86-4.09-4.12-4.09c-2.27,0-4.12,1.83-4.12,4.08c-0.01,2.26,1.86,4.11,4.14,4.1
		C11.48,16.09,13.33,14.25,13.33,12z M16.3,12.94c-0.44,0-0.88,0.01-1.32-0.01c-0.22-0.01-0.28,0.08-0.28,0.29
		c0.01,0.44,0,0.87,0.01,1.31c0,0.13,0.01,0.27,0.06,0.38c0.43,0.99,1.61,1.29,2.47,0.64c0.41-0.31,0.68-0.69,0.63-1.25
		c-0.03-0.36-0.01-0.72,0-1.08c0.01-0.21-0.06-0.29-0.28-0.28C17.15,12.95,16.72,12.94,16.3,12.94z M18.02,10.27
		c0-0.55,0-1.07,0-1.61c-1.14,0-2.24,0-3.36,0.01c-0.06,0-0.16,0.13-0.17,0.21c-0.01,0.39,0,0.79-0.01,1.18
		c-0.01,0.21,0.12,0.22,0.28,0.22c0.56,0,1.12,0,1.68,0C16.97,10.27,17.48,10.27,18.02,10.27z"/>
	<path class="st0" d="M10.92,11.52c0.43,0,0.8-0.01,1.19,0c0.31,0.01,0.47,0.16,0.43,0.48c-0.04,0.3-0.08,0.6-0.13,0.91
		c-0.04,0.26-0.17,0.32-0.42,0.19c-0.28-0.15-0.58-0.25-0.87-0.39c-0.19-0.09-0.3-0.04-0.39,0.14c-0.08,0.16-0.2,0.29-0.28,0.42
		c0.21,0.35,0.43,0.68,0.63,1.03c0.14,0.25,0.07,0.45-0.19,0.56c-0.28,0.12-0.56,0.25-0.85,0.35c-0.33,0.1-0.37,0.06-0.4-0.29
		c-0.02-0.3-0.07-0.61-0.1-0.91c-0.02-0.21-0.11-0.28-0.32-0.25c-0.17,0.01-0.35-0.03-0.5-0.04c-0.19,0.35-0.34,0.7-0.55,1.02
		c-0.2,0.32-0.33,0.34-0.65,0.13c-0.26-0.17-0.49-0.37-0.73-0.57c-0.19-0.16-0.18-0.29,0.04-0.43c0.28-0.18,0.56-0.39,0.82-0.61
		c0.06-0.05,0.09-0.23,0.05-0.31c-0.24-0.5-0.25-0.47-0.82-0.45c-1.08,0.05-1.13-0.04-0.95-1.08c0.14-0.79,0.23-0.64,0.73-0.37
		c0.03,0.01,0.06,0.03,0.09,0.04c0.76,0.34,0.76,0.34,1.2-0.34c-0.21-0.35-0.43-0.69-0.63-1.04C7.18,9.46,7.24,9.27,7.49,9.15
		C7.76,9.03,8.02,8.9,8.31,8.81C8.7,8.69,8.75,8.74,8.77,9.14C8.79,9.42,8.83,9.7,8.87,9.99c0.02,0.18,0.08,0.3,0.31,0.28
		c0.16-0.02,0.34,0.02,0.51,0.04c0.19-0.35,0.36-0.69,0.56-1.03c0.16-0.28,0.38-0.3,0.63-0.12c0.26,0.2,0.52,0.4,0.77,0.61
		c0.15,0.13,0.13,0.25-0.04,0.37c-0.27,0.18-0.53,0.38-0.8,0.57c-0.17,0.12-0.23,0.24-0.09,0.43
		C10.82,11.26,10.87,11.43,10.92,11.52z M9.85,11.99c-0.01-0.35-0.31-0.64-0.66-0.64c-0.35,0.01-0.65,0.31-0.64,0.66
		c0.01,0.35,0.32,0.64,0.66,0.64C9.56,12.64,9.86,12.34,9.85,11.99z"/>
	<path class="st0" d="M15.67,13.94c0.01,0.47-0.04,0.54-0.33,0.48c-0.06-0.01-0.16-0.08-0.16-0.13c-0.01-0.24-0.02-0.48,0.01-0.72
		c0.01-0.05,0.16-0.13,0.25-0.12c0.08,0.01,0.19,0.08,0.22,0.16C15.7,13.72,15.67,13.84,15.67,13.94z"/>
	<path class="st0" d="M16.53,14.95c0.01,0.45-0.05,0.54-0.34,0.47c-0.06-0.01-0.15-0.12-0.16-0.18c-0.02-0.19-0.03-0.4,0.01-0.58
		c0.01-0.08,0.15-0.17,0.25-0.19c0.14-0.04,0.26,0.02,0.25,0.21C16.52,14.76,16.53,14.85,16.53,14.95z"/>
	<path class="st0" d="M16.87,13.47c0.18,0,0.31,0,0.49,0c0,0.28,0.01,0.56-0.01,0.83c-0.01,0.06-0.18,0.13-0.27,0.12
		c-0.07,0-0.19-0.11-0.2-0.17C16.86,14.01,16.87,13.76,16.87,13.47z"/>
	<path class="st0" d="M17.54,9.13H15.1v0.65h2.44V9.13z"/>
</g>
</svg>
