<?xml version="1.0" encoding="utf-8"?>
<!-- Generator: Adobe Illustrator 24.2.0, SVG Export Plug-In . SVG Version: 6.00 Build 0)  -->
<svg version="1.1" id="Layer_1" xmlns="http://www.w3.org/2000/svg" xmlns:xlink="http://www.w3.org/1999/xlink" x="0px" y="0px"
	 viewBox="0 0 24 24" style="enable-background:new 0 0 24 24;" xml:space="preserve">
<style type="text/css">
	.st0{fill:#797A7B;}
</style>
<g>
	<path class="st0" d="M5.3,14.91c-0.52-0.07-0.95-0.36-1.17-0.97c-0.08-0.22-0.11-0.49-0.11-0.74c-0.01-1.49-0.01-3,0-4.5
		C4.01,7.65,4.56,7,5.45,7c4.37,0,8.74,0,13.1,0c0.89,0,1.44,0.64,1.44,1.7c0.01,1.48,0,2.97,0,4.46c0,0.96-0.38,1.51-1.17,1.72
		c-0.05,0.01-0.09,0.04-0.16,0.05c0,0.44,0,0.87,0,1.3c0,0.59-0.14,0.76-0.63,0.76c-2.17,0.01-4.33,0-6.5,0c-1.82,0-3.65,0-5.47,0
		c-0.63,0-0.74-0.13-0.74-0.88c0-0.36,0-0.73,0-1.09C5.33,15,5.32,14.98,5.3,14.91z M5.81,12.98c0,0.16,0.11,0.29,0.25,0.29
		c0.81,0.02,3.27,0.04,4.65,0.04c0.25,0,0.41-0.14,0.41-0.36c0-1.05,0.01-2.99,0.01-3.88c0-0.26-0.18-0.46-0.4-0.46H6.06
		c-0.14,0-0.25,0.13-0.25,0.29L5.81,12.98z M18.2,12.86v-3.8c0-0.24-0.17-0.44-0.37-0.44h-4.54c-0.2,0-0.37,0.2-0.37,0.44v3.8
		c0,0.24,0.17,0.44,0.37,0.44h4.54C18.03,13.3,18.2,13.1,18.2,12.86z M7.1,14.93c-0.3,0-0.56,0-0.84,0c0,0.35,0,0.66,0,0.99
		c0.29,0,0.56,0,0.84,0C7.1,15.59,7.1,15.27,7.1,14.93z M8.87,14.93c-0.29,0-0.56,0-0.84,0c0,0.35,0,0.66,0,1c0.29,0,0.55,0,0.84,0
		C8.87,15.59,8.87,15.28,8.87,14.93z M9.8,15.92c0.31,0,0.57,0,0.85,0c0-0.35,0-0.66,0-0.98c-0.29,0-0.56,0-0.85,0
		C9.8,15.29,9.8,15.59,9.8,15.92z M12.43,14.93c-0.3,0-0.56,0-0.84,0c0,0.35,0,0.66,0,1c0.29,0,0.56,0,0.84,0
		C12.43,15.59,12.43,15.28,12.43,14.93z M14.2,14.93c-0.3,0-0.57,0-0.85,0c0,0.35,0,0.66,0,0.99c0.29,0,0.57,0,0.85,0
		C14.2,15.58,14.2,15.28,14.2,14.93z M15.15,14.92c0,0.36,0,0.68,0,1c0.3,0,0.56,0,0.83,0c0-0.35,0-0.66,0-1
		C15.69,14.92,15.43,14.92,15.15,14.92z M16.91,15.91c0.29,0,0.56,0,0.84,0c0-0.34,0-0.66,0-0.98c-0.29,0-0.56,0-0.84,0
		C16.91,15.27,16.91,15.57,16.91,15.91z"/>
	<path class="st0" d="M7.65,12.25H7.03c-0.18,0-0.33-0.18-0.33-0.39v-1.8c0-0.22,0.15-0.39,0.33-0.39h0.62
		c0.18,0,0.33,0.17,0.33,0.39v1.8C7.98,12.07,7.83,12.25,7.65,12.25z"/>
	<path class="st0" d="M9.87,12.25H9.25c-0.18,0-0.33-0.18-0.33-0.39v-1.8c0-0.21,0.14-0.38,0.33-0.38h0.62
		c0.18,0,0.33,0.18,0.33,0.39v1.8C10.2,12.07,10.05,12.25,9.87,12.25z"/>
	<path class="st0" d="M14.13,9.65h0.63c0.18,0,0.33,0.18,0.33,0.39v1.8c0,0.21-0.15,0.39-0.33,0.39h-0.63
		c-0.18,0-0.33-0.18-0.33-0.39v-1.8C13.81,9.83,13.95,9.65,14.13,9.65z"/>
	<path class="st0" d="M16.99,12.24h-0.64c-0.18,0-0.33-0.18-0.33-0.39v-1.8c0-0.21,0.15-0.39,0.33-0.39h0.64
		c0.18,0,0.33,0.18,0.33,0.39v1.8C17.32,12.07,17.17,12.24,16.99,12.24z"/>
</g>
</svg>
