<?xml version="1.0" encoding="utf-8"?>
<!-- Generator: Adobe Illustrator 24.2.0, SVG Export Plug-In . SVG Version: 6.00 Build 0)  -->
<svg version="1.1" id="Layer_1" xmlns="http://www.w3.org/2000/svg" xmlns:xlink="http://www.w3.org/1999/xlink" x="0px" y="0px"
	 viewBox="0 0 24 24" style="enable-background:new 0 0 24 24;" xml:space="preserve">
<style type="text/css">
	.st0{fill:#797A7B;}
</style>
<path class="st0" d="M19,6H5C4.73,6,4.48,6.11,4.29,6.29C4.11,6.48,4,6.73,4,7v10c0,0.27,0.11,0.52,0.29,0.71
	C4.48,17.89,4.73,18,5,18h14c0.27,0,0.52-0.11,0.71-0.29S20,17.27,20,17V7c0-0.27-0.11-0.52-0.29-0.71C19.52,6.11,19.27,6,19,6z
	 M5.61,7c0.12,0,0.25,0.03,0.35,0.1C6.06,7.16,6.15,7.26,6.2,7.37c0.05,0.11,0.07,0.24,0.04,0.36C6.22,7.86,6.16,7.97,6.07,8.06
	c-0.09,0.09-0.2,0.15-0.32,0.18C5.63,8.26,5.51,8.25,5.39,8.2C5.28,8.16,5.18,8.08,5.11,7.97C5.04,7.87,5,7.75,5,7.63
	c0-0.16,0.06-0.32,0.18-0.44S5.44,7.01,5.61,7z M5.61,17c-0.12,0-0.24-0.04-0.35-0.11c-0.1-0.07-0.18-0.17-0.23-0.28
	c-0.05-0.11-0.06-0.24-0.04-0.36c0.02-0.12,0.08-0.23,0.17-0.32c0.09-0.09,0.2-0.15,0.32-0.17c0.12-0.02,0.25-0.01,0.36,0.04
	c0.11,0.05,0.21,0.13,0.28,0.23c0.07,0.1,0.11,0.22,0.11,0.35c0,0.17-0.07,0.32-0.18,0.44C5.93,16.93,5.77,17,5.61,17z M8.14,14.11
	c-0.65,0.01-1.28-0.23-1.76-0.67l0.43-0.53c0.37,0.35,0.85,0.55,1.35,0.56c0.5,0,0.77-0.25,0.77-0.55s-0.3-0.45-0.95-0.61
	c-0.85-0.2-1.45-0.44-1.45-1.22s0.61-1.24,1.5-1.24c0.57-0.01,1.13,0.19,1.56,0.57l-0.4,0.55C8.86,10.68,8.44,10.51,8,10.5
	c-0.16-0.02-0.33,0.03-0.46,0.13c-0.13,0.1-0.22,0.25-0.24,0.41c0,0.34,0.3,0.45,0.96,0.61c0.86,0.19,1.44,0.47,1.44,1.22
	S9.12,14.11,8.14,14.11z M11.89,14.11c-0.65,0.01-1.28-0.23-1.76-0.67l0.43-0.53c0.37,0.35,0.85,0.55,1.36,0.56
	c0.5,0,0.77-0.25,0.77-0.55s-0.29-0.45-0.95-0.61c-0.85-0.2-1.45-0.44-1.45-1.22s0.62-1.24,1.5-1.24c0.57-0.01,1.13,0.19,1.56,0.57
	l-0.41,0.55c-0.32-0.3-0.74-0.48-1.18-0.5c-0.16-0.02-0.33,0.03-0.46,0.13c-0.13,0.1-0.22,0.25-0.24,0.41c0,0.33,0.3,0.45,0.96,0.6
	c0.86,0.19,1.44,0.47,1.44,1.22S12.88,14.11,11.89,14.11z M14.18,14.04V9.92h1.45c1.36,0,2.32,0.85,2.32,2.06s-0.95,2.06-2.32,2.06
	H14.18z M18.35,17c-0.12,0-0.24-0.04-0.35-0.11c-0.1-0.07-0.18-0.17-0.23-0.28c-0.05-0.11-0.06-0.24-0.04-0.36
	c0.02-0.12,0.08-0.23,0.17-0.32c0.09-0.09,0.2-0.15,0.32-0.17c0.12-0.02,0.25-0.01,0.36,0.04c0.11,0.05,0.21,0.13,0.28,0.23
	c0.07,0.1,0.11,0.22,0.11,0.35c0,0.17-0.07,0.32-0.18,0.44C18.67,16.93,18.51,17,18.35,17z M18.35,8.25c-0.12,0-0.24-0.04-0.35-0.11
	c-0.1-0.07-0.18-0.17-0.23-0.28c-0.05-0.11-0.06-0.24-0.04-0.36c0.02-0.12,0.08-0.23,0.17-0.32c0.09-0.09,0.2-0.15,0.32-0.17
	c0.12-0.02,0.25-0.01,0.36,0.04c0.11,0.05,0.21,0.13,0.28,0.23c0.07,0.1,0.11,0.22,0.11,0.35c0,0.17-0.07,0.32-0.18,0.44
	C18.67,8.18,18.51,8.25,18.35,8.25z"/>
<path class="st0" d="M15.07,10.48h0.69c0.17-0.01,0.34,0.02,0.49,0.09c0.16,0.07,0.3,0.18,0.42,0.32c0.12,0.14,0.22,0.31,0.29,0.5
	c0.07,0.19,0.1,0.39,0.1,0.59c0,0.2-0.03,0.41-0.1,0.59c-0.07,0.19-0.16,0.36-0.29,0.5c-0.12,0.14-0.27,0.25-0.42,0.32
	c-0.16,0.07-0.33,0.1-0.49,0.09h-0.69V10.48z"/>
</svg>
