<?xml version="1.0" encoding="utf-8"?>
<!-- Generator: Adobe Illustrator 24.2.0, SVG Export Plug-In . SVG Version: 6.00 Build 0)  -->
<svg version="1.1" id="Layer_1" xmlns="http://www.w3.org/2000/svg" xmlns:xlink="http://www.w3.org/1999/xlink" x="0px" y="0px"
	 viewBox="0 0 24 24" style="enable-background:new 0 0 24 24;" xml:space="preserve">
<style type="text/css">
	.st0{fill:#797A7B;}
</style>
<g>
	<path class="st0" d="M15.01,11.12c-0.28,0-0.51,0.09-0.71,0.26C14.1,11.56,14,11.76,14,12c0,0.24,0.1,0.45,0.3,0.62
		c0.2,0.17,0.43,0.25,0.71,0.25c0.28,0,0.51-0.08,0.7-0.25C15.9,12.45,16,12.24,16,12c0-0.25-0.1-0.45-0.29-0.62
		C15.52,11.21,15.28,11.12,15.01,11.12z"/>
	<path class="st0" d="M17.5,9.37h-6c-0.14,0-0.25,0.04-0.35,0.13S11,9.69,11,9.81v4.37c0,0.12,0.05,0.22,0.15,0.31
		s0.22,0.13,0.35,0.13h6c0.14,0,0.25-0.04,0.35-0.13C17.95,14.4,18,14.3,18,14.18V9.81c0-0.12-0.05-0.22-0.15-0.31
		C17.75,9.42,17.64,9.37,17.5,9.37z M16.41,13.23c-0.39,0.34-0.86,0.51-1.41,0.51s-1.02-0.17-1.41-0.51S13,12.48,13,12
		c0-0.48,0.2-0.9,0.59-1.24s0.86-0.51,1.41-0.51s1.02,0.17,1.41,0.51C16.8,11.1,17,11.51,17,12C17,12.48,16.8,12.89,16.41,13.23z"/>
	<path class="st0" d="M19.85,7c-0.1-0.09-0.22-0.13-0.35-0.13H6.95L7,5.5C7,5.39,7,5,6.5,5S6,5,5.59,5.01C5.57,5,5.54,5,5.5,5h-1
		C4.36,5,4.25,5.04,4.15,5.13S4,5.26,4,5.5c0,0.12,0.05,0.28,0.15,0.37C4.25,5.96,4.36,6,4.5,6H5v12.56c0,0.12,0.05,0.22,0.15,0.31
		s0.22,0.13,0.35,0.13s0.8,0.05,1-0.13c0.1-0.09,0.15-0.19,0.15-0.31v-1.31H8v1.31c0,0.12,0.05,0.22,0.15,0.31s0.22,0.13,0.35,0.13
		s0.25-0.04,0.35-0.13S9,18.68,9,18.56v-1.31h1v1.31c0,0.12,0.05,0.22,0.15,0.31s0.22,0.13,0.35,0.13s0.25-0.04,0.35-0.13
		S11,18.68,11,18.56v-1.31h1v1.31c0,0.12,0.05,0.22,0.15,0.31s0.22,0.13,0.35,0.13s0.25-0.04,0.35-0.13S13,18.68,13,18.56v-1.31h1
		v1.31c0,0.12,0.05,0.22,0.15,0.31c0.1,0.09,0.22,0.13,0.35,0.13s0.25-0.04,0.35-0.13c0.1-0.09,0.15-0.19,0.15-0.31v-1.31h1v1.31
		c0,0.12,0.05,0.22,0.15,0.31c0.1,0.09,0.22,0.13,0.35,0.13s0.25-0.04,0.35-0.13c0.1-0.09,0.15-0.19,0.15-0.31v-1.31h1v1.31
		c0,0.12,0.05,0.22,0.15,0.31c0.1,0.09,0.22,0.13,0.35,0.13s0.25-0.04,0.35-0.13c0.1-0.09,0.15-0.19,0.15-0.31v-1.31h0.5
		c0.14,0,0.25-0.04,0.35-0.13c0.1-0.09,0.15-0.19,0.15-0.31v-9.5C20,7.19,19.95,7.09,19.85,7z M19,14.62c0,0.25-0.1,0.45-0.29,0.62
		c-0.19,0.17-0.43,0.25-0.71,0.25h-7c-0.27,0-0.51-0.08-0.7-0.25c-0.2-0.17-0.3-0.38-0.3-0.62V9.37c0-0.24,0.1-0.44,0.3-0.61
		c0.2-0.17,0.43-0.26,0.7-0.26h7c0.28,0,0.52,0.09,0.71,0.26C18.9,8.93,19,9.14,19,9.37V14.62z"/>
</g>
</svg>
